# Blender 5.0.1
# www.blender.org
mtllib 4PU.mtl
o Стамина
v 1.759197 0.108992 -1.936428
v 1.759197 -0.553309 -1.936428
v 1.759197 0.108992 2.162659
v 1.759197 -0.553309 2.162659
v -1.931428 0.108992 -1.936428
v -1.931428 -0.553309 -1.936428
v -1.931428 0.108992 2.162659
v -1.931428 -0.553309 2.162659
v 1.759197 0.108992 2.162659
v -1.931428 0.108992 2.162659
v 1.759197 0.108992 -1.936428
v -1.931428 0.108992 -1.936428
v 1.759197 -0.553309 -2.254532
v -1.931428 -0.553309 -2.254532
v 1.759197 0.108992 -2.254532
v -1.931428 0.108992 -2.254532
vn -0.0000 1.0000 -0.0000
vn -0.0000 -0.0000 1.0000
vn -1.0000 -0.0000 -0.0000
vn -0.0000 -1.0000 -0.0000
vn 1.0000 -0.0000 -0.0000
vn -0.0000 -0.0000 -1.0000
vt 0.625000 0.250000
vt 0.625000 0.000000
vt 0.625000 0.750000
vt 0.375000 1.000000
vt 0.375000 0.750000
vt 0.375000 0.250000
vt 0.375000 0.000000
vt 0.375000 0.500000
vt 0.125000 0.750000
vt 0.125000 0.500000
vt 0.625000 0.500000
vt 0.875000 0.500000
vt 0.625000 1.000000
vt 0.875000 0.750000
s 0
usemtl Material.005
f 5/1/1 10/2/1 12/1/1
f 3/3/2 8/4/2 4/5/2
f 7/2/3 6/6/3 8/7/3
f 2/8/4 8/9/4 6/10/4
f 1/11/5 4/5/5 2/8/5
f 5/1/3 14/6/3 6/6/3
f 12/12/1 9/3/1 11/11/1
f 3/3/1 11/11/1 9/3/1
f 1/11/1 12/1/1 11/11/1
f 7/13/1 9/3/1 10/13/1
f 16/1/6 13/8/6 14/6/6
f 6/10/4 13/8/4 2/8/4
f 1/11/1 16/1/1 5/1/1
f 2/8/5 15/11/5 1/11/5
f 5/1/1 7/2/1 10/2/1
f 3/3/2 7/13/2 8/4/2
f 7/2/3 5/1/3 6/6/3
f 2/8/4 4/5/4 8/9/4
f 1/11/5 3/3/5 4/5/5
f 5/1/3 16/1/3 14/6/3
f 12/12/1 10/14/1 9/3/1
f 3/3/1 1/11/1 11/11/1
f 1/11/1 5/1/1 12/1/1
f 7/13/1 3/3/1 9/3/1
f 16/1/6 15/11/6 13/8/6
f 6/10/4 14/10/4 13/8/4
f 1/11/1 15/11/1 16/1/1
f 2/8/5 13/8/5 15/11/5
o Балка
v 0.189473 0.108992 -1.671313
v 0.189473 3.110875 -1.671313
v 0.189473 0.108992 -1.941043
v 0.189473 3.110875 -1.941043
v -0.371390 0.108992 -1.671313
v -0.371390 3.110875 -1.671313
v -0.371390 0.108992 -1.941043
v -0.371390 3.110875 -1.941043
vn 1.0000 -0.0000 -0.0000
vn -0.0000 -0.0000 -1.0000
vn -1.0000 -0.0000 -0.0000
vn -0.0000 -0.0000 1.0000
vn -0.0000 -1.0000 -0.0000
vn -0.0000 1.0000 -0.0000
vt 0.625000 0.000000
vt 0.375000 0.250000
vt 0.375000 0.000000
vt 0.625000 0.250000
vt 0.375000 0.500000
vt 0.625000 0.500000
vt 0.375000 0.750000
vt 0.625000 0.750000
vt 0.375000 1.000000
vt 0.125000 0.750000
vt 0.125000 0.500000
vt 0.875000 0.500000
vt 0.625000 1.000000
vt 0.875000 0.750000
s 0
usemtl Material.002
f 18/15/7 17/17/7 19/16/7
f 20/18/8 19/16/8 23/19/8
f 24/20/9 23/19/9 21/21/9
f 22/22/10 21/21/10 17/23/10
f 23/19/11 19/25/11 17/24/11
f 20/26/12 24/20/12 22/22/12
f 18/15/7 19/16/7 20/18/7
f 20/18/8 23/19/8 24/20/8
f 24/20/9 21/21/9 22/22/9
f 22/22/10 17/23/10 18/27/10
f 23/19/11 17/24/11 21/21/11
f 20/26/12 22/22/12 18/28/12
o Голова
v 0.132810 2.181041 -1.910203
v 0.156640 2.181041 -1.694353
v 0.132810 2.107612 -1.694353
v 0.156641 2.181041 0.725209
v 0.132810 2.181041 0.941059
v 0.132810 2.107612 0.725209
v -0.306644 2.181041 -1.910203
v -0.306644 2.107612 -1.694353
v -0.330474 2.181041 -1.694353
v -0.306644 2.181041 0.941059
v -0.330474 2.181041 0.725209
v -0.306644 2.107612 0.725209
v 0.132810 2.521625 -1.910203
v 0.132810 2.595054 -1.694353
v 0.156640 2.521625 -1.694353
v 0.132810 2.521625 0.941059
v 0.156641 2.521625 0.725209
v 0.132810 2.595054 0.725209
v -0.306644 2.521625 -1.910203
v -0.330474 2.521625 -1.694353
v -0.306644 2.595054 -1.694353
v -0.306644 2.521625 0.941059
v -0.306644 2.595054 0.725209
v -0.330474 2.521625 0.725209
vn 0.9460 -0.3070 -0.1044
vn 0.9460 -0.3070 0.1044
vn -0.9460 -0.3070 -0.1044
vn -0.9460 -0.3070 0.1044
vn 0.9460 0.3070 -0.1044
vn 0.9460 0.3070 0.1044
vn -0.9460 0.3070 -0.1044
vn -0.9460 0.3070 0.1044
vn -0.0000 -0.9467 -0.3221
vn 0.9512 -0.3087 -0.0000
vn -0.0000 -0.9467 0.3221
vn -0.9512 -0.3087 -0.0000
vn -0.9940 -0.0000 -0.1097
vn -0.9940 -0.0000 0.1097
vn -0.9512 0.3087 -0.0000
vn -0.0000 0.9467 -0.3221
vn -0.0000 0.9467 0.3221
vn 0.9512 0.3087 -0.0000
vn 0.9940 -0.0000 -0.1097
vn 0.9940 -0.0000 0.1097
vn -0.0000 -0.0000 -1.0000
vn -0.0000 -1.0000 -0.0000
vn 1.0000 -0.0000 -0.0000
vn -0.0000 -0.0000 1.0000
vn -1.0000 -0.0000 -0.0000
vn -0.0000 1.0000 -0.0000
vt 0.162660 0.737769
vt 0.162660 0.750000
vt 0.125000 0.737769
vt 0.606074 0.000000
vt 0.625000 0.012231
vt 0.606074 0.012231
vt 0.162660 0.512231
vt 0.125000 0.512231
vt 0.162660 0.500000
vt 0.625000 0.254400
vt 0.606074 0.278245
vt 0.606074 0.237769
vt 0.337340 0.737769
vt 0.389194 0.737769
vt 0.365633 0.768830
vt 0.643830 0.762715
vt 0.606074 0.787660
vt 0.606074 0.740827
vt 0.337340 0.512230
vt 0.365633 0.481170
vt 0.389194 0.512231
vt 0.643830 0.487285
vt 0.606074 0.509173
vt 0.606074 0.462340
vt 0.393926 0.012231
vt 0.393926 0.000000
vt 0.393926 0.287660
vt 0.625000 0.962340
vt 0.393926 0.237769
vt 0.393926 0.962340
vt 0.837339 0.512230
vt 0.606074 0.962340
vt 0.837340 0.737769
s 0
usemtl Material.003
f 25/29/13 26/30/13 27/31/13
f 28/32/14 29/33/14 30/34/14
f 31/35/15 32/36/15 33/37/15
f 34/38/16 35/39/16 36/40/16
f 37/41/17 38/42/17 39/43/17
f 40/44/18 41/45/18 42/46/18
f 43/47/19 44/48/19 45/49/19
f 46/50/20 47/51/20 48/52/20
f 25/29/21 32/36/21 31/35/21
f 28/32/22 27/53/22 26/54/22
f 34/38/23 30/34/23 29/33/23
f 33/55/24 36/40/24 35/39/24
f 31/35/25 44/48/25 43/47/25
f 46/50/26 35/39/26 34/38/26
f 45/49/27 48/52/27 47/51/27
f 43/47/28 38/42/28 37/41/28
f 40/44/29 47/51/29 46/50/29
f 39/43/30 42/46/30 41/45/30
f 37/41/31 26/30/31 25/29/31
f 29/56/32 41/45/32 40/44/32
f 43/47/33 25/29/33 31/35/33
f 30/34/34 32/57/34 27/53/34
f 41/45/35 26/58/35 39/43/35
f 34/59/36 40/44/36 46/50/36
f 35/39/37 44/48/37 33/55/37
f 47/51/38 38/42/38 45/49/38
f 25/29/21 27/31/21 32/36/21
f 28/32/22 30/34/22 27/53/22
f 34/38/23 36/40/23 30/34/23
f 33/55/24 32/57/24 36/40/24
f 31/35/25 33/37/25 44/48/25
f 46/50/26 48/52/26 35/39/26
f 45/49/27 44/48/27 48/52/27
f 43/47/28 45/49/28 38/42/28
f 40/44/29 42/46/29 47/51/29
f 39/43/30 38/42/30 42/46/30
f 37/41/31 39/43/31 26/30/31
f 29/56/32 28/60/32 41/45/32
f 43/47/33 37/41/33 25/29/33
f 30/34/34 36/40/34 32/57/34
f 41/45/35 28/60/35 26/58/35
f 34/59/36 29/61/36 40/44/36
f 35/39/37 48/52/37 44/48/37
f 47/51/38 42/46/38 38/42/38
o Шпиндель
v -0.157197 2.111062 0.189842
v -0.157197 2.111062 0.339758
v -0.009801 2.111062 0.189842
v -0.009801 2.111062 0.339758
v -0.124611 1.906376 0.237516
v -0.157197 1.943379 0.189842
v -0.124611 1.906376 0.292084
v -0.157197 1.943379 0.339758
v -0.042387 1.906376 0.237516
v -0.009801 1.943379 0.189842
v -0.042387 1.906376 0.292084
v -0.009801 1.943379 0.339758
v -0.085659 1.916435 0.267546
v -0.085659 1.914703 0.259459
v -0.088149 1.914703 0.267546
v -0.085659 1.865023 0.259459
v -0.085659 1.863292 0.267546
v -0.088149 1.865023 0.267546
v -0.085659 1.916435 0.259237
v -0.088149 1.914703 0.259237
v -0.085659 1.914703 0.267323
v -0.085659 1.863292 0.259237
v -0.085659 1.865023 0.267323
v -0.088149 1.865023 0.259237
v -0.080611 1.916435 0.267546
v -0.078121 1.914703 0.267546
v -0.080611 1.914703 0.259459
v -0.080611 1.863292 0.267546
v -0.080611 1.865023 0.259459
v -0.078121 1.865023 0.267546
v -0.080611 1.916435 0.259237
v -0.080611 1.914703 0.267323
v -0.078121 1.914703 0.259237
v -0.080611 1.863292 0.259237
v -0.078121 1.865023 0.259237
v -0.080611 1.865023 0.267323
vn -0.0000 1.0000 -0.0000
vn -0.7505 -0.6609 -0.0000
vn -0.0000 -0.7900 0.6131
vn 0.7505 -0.6609 -0.0000
vn -0.0000 -0.7900 -0.6131
vn -0.0000 -0.0000 -1.0000
vn -1.0000 -0.0000 -0.0000
vn -0.0000 -1.0000 -0.0000
vn -0.0000 -0.0000 1.0000
vn 1.0000 -0.0000 -0.0000
vn -0.5624 0.8086 -0.1731
vn -0.5624 -0.8086 -0.1732
vn -0.5624 0.8086 0.1732
vn -0.5623 -0.8086 0.1731
vn 0.5624 0.8086 -0.1731
vn 0.5623 -0.8086 -0.1732
vn 0.5624 0.8086 0.1732
vn 0.5623 -0.8086 0.1732
vn 0.5710 -0.8210 -0.0000
vn -0.9557 -0.0000 -0.2943
vn 0.5710 0.8210 -0.0000
vn -0.9557 -0.0000 0.2943
vn -0.0000 0.9778 0.2094
vn -0.0000 -0.9778 0.2094
vn 0.9557 -0.0000 0.2943
vn -0.5710 -0.8210 -0.0000
vn -0.5710 0.8210 -0.0000
vn 0.9557 -0.0000 -0.2943
vn -0.0000 0.9778 -0.2094
vn -0.0000 -0.9778 -0.2094
vt 0.375000 0.500000
vt 0.125000 0.750000
vt 0.125000 0.500000
vt 0.819730 0.579501
vt 0.875000 0.750000
vt 0.819730 0.670499
vt 0.680269 0.579501
vt 0.875000 0.500000
vt 0.680269 0.670499
vt 0.591104 0.500000
vt 0.591104 0.750000
vt 0.375000 1.000000
vt 0.375000 0.750000
vt 0.579805 0.000000
vt 0.375000 0.250000
vt 0.375000 0.000000
vt 0.579805 0.250000
vt 0.375000 0.937926
vt 0.383146 0.937926
vt 0.383146 1.000000
vt 0.616854 0.937926
vt 0.625000 0.937926
vt 0.616854 1.000000
vt 0.187074 0.692811
vt 0.187074 0.500000
vt 0.625000 0.208049
vt 0.616854 0.312074
vt 0.616854 0.057189
vt 0.328445 0.572707
vt 0.383146 0.557189
vt 0.365591 0.796555
vt 0.656037 0.652496
vt 0.616854 0.812074
vt 0.616854 0.557189
vt 0.312926 0.692811
vt 0.348036 0.468963
vt 0.381110 0.755311
vt 0.656037 0.597504
vt 0.616854 0.692811
vt 0.616854 0.437926
vt 0.187074 0.492919
vt 0.616854 0.257081
vt 0.625000 0.250000
vt 0.383146 0.312074
vt 0.187074 0.750000
vt 0.383146 0.257081
vt 0.383146 -0.007081
vt 0.812926 0.492919
vt 0.579805 1.000000
vt 0.812926 0.757081
s 0
usemtl Material.004
f 52/62/39 49/63/39 50/64/39
f 55/65/40 54/66/40 53/67/40
f 59/68/41 56/69/41 55/65/41
f 57/70/42 60/71/42 59/68/42
f 53/67/43 58/72/43 57/70/43
f 58/72/44 49/73/44 51/74/44
f 54/75/45 50/76/45 49/77/45
f 55/65/46 57/70/46 59/68/46
f 56/78/47 52/62/47 50/76/47
f 60/71/48 51/74/48 52/62/48
f 61/79/49 62/80/49 63/81/49
f 64/82/50 65/83/50 66/84/50
f 67/85/51 68/63/51 69/86/51
f 70/87/52 71/88/52 72/89/52
f 73/90/53 74/91/53 75/92/53
f 76/93/54 77/94/54 78/95/54
f 79/96/55 80/97/55 81/98/55
f 82/99/56 83/100/56 84/101/56
f 61/102/57 68/63/57 67/85/57
f 64/82/58 63/81/58 62/80/58
f 70/87/59 66/103/59 65/104/59
f 69/105/60 72/89/60 71/88/60
f 79/96/61 69/86/61 80/97/61
f 82/99/62 71/88/62 70/87/62
f 83/100/63 80/97/63 84/101/63
f 73/90/64 81/98/64 74/91/64
f 82/99/65 78/95/65 83/100/65
f 77/94/66 74/91/66 78/95/66
f 61/102/67 75/92/67 62/106/67
f 65/83/68 77/94/68 76/93/68
f 79/96/46 61/102/46 67/85/46
f 63/107/48 72/89/48 68/108/48
f 77/94/44 62/80/44 75/92/44
f 82/99/39 65/109/39 76/93/39
f 71/88/47 80/97/47 69/105/47
f 83/100/45 74/91/45 81/98/45
f 52/62/39 51/74/39 49/63/39
f 55/65/40 56/69/40 54/66/40
f 59/68/41 60/71/41 56/69/41
f 57/70/42 58/72/42 60/71/42
f 53/67/43 54/66/43 58/72/43
f 58/72/44 54/110/44 49/73/44
f 54/75/45 56/78/45 50/76/45
f 55/65/46 53/67/46 57/70/46
f 56/78/47 60/71/47 52/62/47
f 60/71/48 58/72/48 51/74/48
f 61/102/57 63/64/57 68/63/57
f 64/82/58 66/84/58 63/81/58
f 70/87/59 72/89/59 66/103/59
f 69/105/60 68/108/60 72/89/60
f 79/96/61 67/85/61 69/86/61
f 82/99/62 84/101/62 71/88/62
f 83/100/63 81/98/63 80/97/63
f 73/90/64 79/96/64 81/98/64
f 82/99/65 76/93/65 78/95/65
f 77/94/66 75/92/66 74/91/66
f 61/102/67 73/90/67 75/92/67
f 65/83/68 64/82/68 77/94/68
f 79/96/46 73/90/46 61/102/46
f 63/107/48 66/103/48 72/89/48
f 77/94/44 64/82/44 62/80/44
f 82/99/39 70/111/39 65/109/39
f 71/88/47 84/101/47 80/97/47
f 83/100/45 78/95/45 74/91/45
